<svg width="24" height="24" viewBox="0 0 24 24" fill="none" xmlns="http://www.w3.org/2000/svg">
<rect width="24" height="24" rx="12" fill="#10BFC3"/>
<g clip-path="url(#clip0_51_966)">
<g clip-path="url(#clip1_51_966)">
<path d="M17.7115 9.46521C18.5456 9.6837 18.9142 10.6548 18.6831 11.5368C18.4861 12.289 17.8624 12.9232 17.1127 12.9073L16.1389 16.6246C15.8524 17.7185 14.7208 18.3731 13.6165 18.0838C12.8411 17.8807 12.2845 17.2649 12.1196 16.5378L12.796 16.715C12.9776 17.0968 13.3215 17.4008 13.765 17.517C14.5567 17.7244 15.3674 17.2575 15.5721 16.4761L16.5459 12.7588C15.9303 12.4305 15.6146 11.6123 15.8302 10.7895C16.0758 9.8518 16.9197 9.25778 17.7115 9.46521ZM15.1975 10.7499C15.194 10.8062 15.185 10.8629 15.1702 10.9195L13.9824 15.454C13.9676 15.5102 13.9476 15.5637 13.9232 15.6141L15.1975 10.7499Z" fill="white"/>
</g>
<path fill-rule="evenodd" clip-rule="evenodd" d="M6 7.91671C6 7.29787 6.24583 6.70438 6.68342 6.26679C7.121 5.82921 7.71449 5.58337 8.33333 5.58337H13C13.6188 5.58337 14.2123 5.82921 14.6499 6.26679C15.0875 6.70438 15.3333 7.29787 15.3333 7.91671V14.0417C15.3333 15.202 14.8724 16.3148 14.0519 17.1353C13.2315 17.9558 12.1187 18.4167 10.9583 18.4167H10.375C9.21468 18.4167 8.10188 17.9558 7.28141 17.1353C6.46094 16.3148 6 15.202 6 14.0417V7.91671ZM8.625 7.04171C8.31558 7.04171 8.01883 7.16462 7.80004 7.38342C7.58125 7.60221 7.45833 7.89895 7.45833 8.20837V12.875C7.45833 13.1845 7.58125 13.4812 7.80004 13.7C8.01883 13.9188 8.31558 14.0417 8.625 14.0417H12.7083C13.0178 14.0417 13.3145 13.9188 13.5333 13.7C13.7521 13.4812 13.875 13.1845 13.875 12.875V8.20837C13.875 7.89895 13.7521 7.60221 13.5333 7.38342C13.3145 7.16462 13.0178 7.04171 12.7083 7.04171H8.625ZM10.6667 9.08337L11.068 8.65987C10.9596 8.55714 10.816 8.49987 10.6667 8.49987C10.5173 8.49987 10.3737 8.55714 10.2653 8.65987L10.6667 9.08337ZM10.6667 9.08337L10.2653 8.65987L10.2648 8.66046L10.2636 8.66162L10.2601 8.66512L10.2484 8.67679C10.1856 8.73703 10.1241 8.79869 10.0641 8.86171C9.94742 8.98304 9.78992 9.15337 9.63183 9.34762C9.47433 9.54012 9.30633 9.76762 9.17392 10.0021C9.05083 10.2209 8.91667 10.5184 8.91667 10.8334C8.91667 11.2975 9.10104 11.7426 9.42923 12.0708C9.75742 12.399 10.2025 12.5834 10.6667 12.5834C11.1308 12.5834 11.5759 12.399 11.9041 12.0708C12.2323 11.7426 12.4167 11.2975 12.4167 10.8334C12.4167 10.5184 12.2825 10.2209 12.1594 10.0021C12.0254 9.77151 11.8722 9.55257 11.7015 9.34762C11.5086 9.11275 11.3027 8.88879 11.0849 8.67679L11.0733 8.66512L11.0698 8.66162L11.0686 8.66046L10.6667 9.08337ZM9.79167 16.0834H8.33333V14.9167H9.79167V16.0834ZM11.5417 16.0834H13V14.9167H11.5417V16.0834Z" fill="white"/>
</g>
<defs>
<clipPath id="clip0_51_966">
<rect width="14" height="14" fill="white" transform="translate(5 5)"/>
</clipPath>
<clipPath id="clip1_51_966">
<rect width="10" height="10" fill="white" transform="translate(9.53418 7) rotate(14.6793)"/>
</clipPath>
</defs>
</svg>
